<svg xmlns="http://www.w3.org/2000/svg" viewBox="0 0 300 190" width="300" height="190">
  <rect width="100%" height="100%" fill="#F8F9FA" rx="12"/>
  <rect x="20" y="20" width="40" height="40" fill="#FF6B6B" stroke="#333" stroke-width="2" rx="4"/><rect x="75" y="20" width="40" height="40" fill="#4ECDC4" stroke="#333" stroke-width="2" rx="4"/><rect x="130" y="20" width="40" height="40" fill="#45B7D1" stroke="#333" stroke-width="2" rx="4"/><rect x="185" y="20" width="40" height="40" fill="#96CEB4" stroke="#333" stroke-width="2" rx="4"/><rect x="240" y="20" width="40" height="40" fill="#FFEAA7" stroke="#333" stroke-width="2" rx="4"/><rect x="20" y="75" width="40" height="40" fill="#DDA0DD" stroke="#333" stroke-width="2" rx="4"/><rect x="75" y="75" width="40" height="40" fill="#98D8C8" stroke="#333" stroke-width="2" rx="4"/><rect x="130" y="75" width="40" height="40" fill="#F7DC6F" stroke="#333" stroke-width="2" rx="4"/><rect x="185" y="75" width="40" height="40" fill="#FF6B6B" stroke="#333" stroke-width="2" rx="4"/><rect x="240" y="75" width="40" height="40" fill="#4ECDC4" stroke="#333" stroke-width="2" rx="4"/><rect x="20" y="130" width="40" height="40" fill="#45B7D1" stroke="#333" stroke-width="2" rx="4"/><rect x="75" y="130" width="40" height="40" fill="#96CEB4" stroke="#333" stroke-width="2" rx="4"/><rect x="130" y="130" width="40" height="40" fill="#FFEAA7" stroke="#333" stroke-width="2" rx="4"/><rect x="185" y="130" width="40" height="40" fill="#DDA0DD" stroke="#333" stroke-width="2" rx="4"/>
</svg>