<svg xmlns="http://www.w3.org/2000/svg" viewBox="0 0 300 135" width="300" height="135">
  <rect width="100%" height="100%" fill="#F8F9FA" rx="12"/>
  <polygon points="40,20 45.877852522924734,31.909830056250527 59.02113032590307,33.819660112501055 49.510565162951536,43.09016994374947 51.75570504584947,56.180339887498945 40,50 28.24429495415054,56.180339887498945 30.489434837048464,43.09016994374947 20.97886967409693,33.81966011250105 34.122147477075266,31.909830056250527" fill="#FF6B6B" stroke="#333" stroke-width="2"/><polygon points="95,20 100.87785252292473,31.909830056250527 114.02113032590307,33.819660112501055 104.51056516295154,43.09016994374947 106.75570504584947,56.180339887498945 95,50 83.24429495415055,56.180339887498945 85.48943483704846,43.09016994374947 75.97886967409693,33.81966011250105 89.12214747707527,31.909830056250527" fill="#4ECDC4" stroke="#333" stroke-width="2"/><polygon points="150,20 155.87785252292474,31.909830056250527 169.02113032590307,33.819660112501055 159.51056516295154,43.09016994374947 161.75570504584945,56.180339887498945 150,50 138.24429495415055,56.180339887498945 140.48943483704846,43.09016994374947 130.97886967409693,33.81966011250105 144.12214747707526,31.909830056250527" fill="#45B7D1" stroke="#333" stroke-width="2"/><polygon points="205,20 210.87785252292474,31.909830056250527 224.02113032590307,33.819660112501055 214.51056516295154,43.09016994374947 216.75570504584945,56.180339887498945 205,50 193.24429495415055,56.180339887498945 195.48943483704846,43.09016994374947 185.97886967409693,33.81966011250105 199.12214747707526,31.909830056250527" fill="#96CEB4" stroke="#333" stroke-width="2"/><polygon points="260,20 265.87785252292474,31.909830056250527 279.0211303259031,33.819660112501055 269.51056516295154,43.09016994374947 271.7557050458495,56.180339887498945 260,50 248.24429495415055,56.180339887498945 250.48943483704846,43.09016994374947 240.97886967409693,33.81966011250105 254.12214747707526,31.909830056250527" fill="#FFEAA7" stroke="#333" stroke-width="2"/><polygon points="40,75 45.877852522924734,86.90983005625053 59.02113032590307,88.81966011250105 49.510565162951536,98.09016994374947 51.75570504584947,111.18033988749895 40,105 28.24429495415054,111.18033988749895 30.489434837048464,98.09016994374947 20.97886967409693,88.81966011250104 34.122147477075266,86.90983005625053" fill="#DDA0DD" stroke="#333" stroke-width="2"/><polygon points="95,75 100.87785252292473,86.90983005625053 114.02113032590307,88.81966011250105 104.51056516295154,98.09016994374947 106.75570504584947,111.18033988749895 95,105 83.24429495415055,111.18033988749895 85.48943483704846,98.09016994374947 75.97886967409693,88.81966011250104 89.12214747707527,86.90983005625053" fill="#98D8C8" stroke="#333" stroke-width="2"/><polygon points="150,75 155.87785252292474,86.90983005625053 169.02113032590307,88.81966011250105 159.51056516295154,98.09016994374947 161.75570504584945,111.18033988749895 150,105 138.24429495415055,111.18033988749895 140.48943483704846,98.09016994374947 130.97886967409693,88.81966011250104 144.12214747707526,86.90983005625053" fill="#F7DC6F" stroke="#333" stroke-width="2"/><polygon points="205,75 210.87785252292474,86.90983005625053 224.02113032590307,88.81966011250105 214.51056516295154,98.09016994374947 216.75570504584945,111.18033988749895 205,105 193.24429495415055,111.18033988749895 195.48943483704846,98.09016994374947 185.97886967409693,88.81966011250104 199.12214747707526,86.90983005625053" fill="#FF6B6B" stroke="#333" stroke-width="2"/>
</svg>