<svg xmlns="http://www.w3.org/2000/svg" viewBox="0 0 245 80" width="245" height="80">
  <rect width="100%" height="100%" fill="#F8F9FA" rx="12"/>
  <path d="M 40 53.333333333333336 C 20 26.666666666666664 20 20 40 30 C 60 20 60 26.666666666666664 40 53.333333333333336" fill="#FF6B6B" stroke="#333" stroke-width="2"/><path d="M 95 53.333333333333336 C 75 26.666666666666664 75 20 95 30 C 115 20 115 26.666666666666664 95 53.333333333333336" fill="#4ECDC4" stroke="#333" stroke-width="2"/><path d="M 150 53.333333333333336 C 130 26.666666666666664 130 20 150 30 C 170 20 170 26.666666666666664 150 53.333333333333336" fill="#45B7D1" stroke="#333" stroke-width="2"/><path d="M 205 53.333333333333336 C 185 26.666666666666664 185 20 205 30 C 225 20 225 26.666666666666664 205 53.333333333333336" fill="#96CEB4" stroke="#333" stroke-width="2"/>
</svg>