<svg xmlns="http://www.w3.org/2000/svg" viewBox="0 0 300 135" width="300" height="135">
  <rect width="100%" height="100%" fill="#F8F9FA" rx="12"/>
  <ellipse cx="40" cy="40" rx="20" ry="18.18181818181818" fill="#FF6B6B" stroke="#333" stroke-width="2"/><path d="M 40 21.81818181818182 Q 50 13.333333333333332 53.333333333333336 6.666666666666664" stroke="#2E7D32" stroke-width="3" fill="none"/><ellipse cx="95" cy="40" rx="20" ry="18.18181818181818" fill="#4ECDC4" stroke="#333" stroke-width="2"/><path d="M 95 21.81818181818182 Q 105 13.333333333333332 108.33333333333333 6.666666666666664" stroke="#2E7D32" stroke-width="3" fill="none"/><ellipse cx="150" cy="40" rx="20" ry="18.18181818181818" fill="#45B7D1" stroke="#333" stroke-width="2"/><path d="M 150 21.81818181818182 Q 160 13.333333333333332 163.33333333333334 6.666666666666664" stroke="#2E7D32" stroke-width="3" fill="none"/><ellipse cx="205" cy="40" rx="20" ry="18.18181818181818" fill="#96CEB4" stroke="#333" stroke-width="2"/><path d="M 205 21.81818181818182 Q 215 13.333333333333332 218.33333333333334 6.666666666666664" stroke="#2E7D32" stroke-width="3" fill="none"/><ellipse cx="260" cy="40" rx="20" ry="18.18181818181818" fill="#FFEAA7" stroke="#333" stroke-width="2"/><path d="M 260 21.81818181818182 Q 270 13.333333333333332 273.3333333333333 6.666666666666664" stroke="#2E7D32" stroke-width="3" fill="none"/><ellipse cx="40" cy="95" rx="20" ry="18.18181818181818" fill="#DDA0DD" stroke="#333" stroke-width="2"/><path d="M 40 76.81818181818181 Q 50 68.33333333333333 53.333333333333336 61.666666666666664" stroke="#2E7D32" stroke-width="3" fill="none"/><ellipse cx="95" cy="95" rx="20" ry="18.18181818181818" fill="#98D8C8" stroke="#333" stroke-width="2"/><path d="M 95 76.81818181818181 Q 105 68.33333333333333 108.33333333333333 61.666666666666664" stroke="#2E7D32" stroke-width="3" fill="none"/><ellipse cx="150" cy="95" rx="20" ry="18.18181818181818" fill="#F7DC6F" stroke="#333" stroke-width="2"/><path d="M 150 76.81818181818181 Q 160 68.33333333333333 163.33333333333334 61.666666666666664" stroke="#2E7D32" stroke-width="3" fill="none"/>
</svg>