<svg xmlns="http://www.w3.org/2000/svg" viewBox="0 0 300 135" width="300" height="135">
  <rect width="100%" height="100%" fill="#F8F9FA" rx="12"/>
  <path d="M 40 53.333333333333336 C 20 26.666666666666664 20 20 40 30 C 60 20 60 26.666666666666664 40 53.333333333333336" fill="#FF6B6B" stroke="#333" stroke-width="2"/><path d="M 95 53.333333333333336 C 75 26.666666666666664 75 20 95 30 C 115 20 115 26.666666666666664 95 53.333333333333336" fill="#4ECDC4" stroke="#333" stroke-width="2"/><path d="M 150 53.333333333333336 C 130 26.666666666666664 130 20 150 30 C 170 20 170 26.666666666666664 150 53.333333333333336" fill="#45B7D1" stroke="#333" stroke-width="2"/><path d="M 205 53.333333333333336 C 185 26.666666666666664 185 20 205 30 C 225 20 225 26.666666666666664 205 53.333333333333336" fill="#96CEB4" stroke="#333" stroke-width="2"/><path d="M 260 53.333333333333336 C 240 26.666666666666664 240 20 260 30 C 280 20 280 26.666666666666664 260 53.333333333333336" fill="#FFEAA7" stroke="#333" stroke-width="2"/><path d="M 40 108.33333333333333 C 20 81.66666666666667 20 75 40 85 C 60 75 60 81.66666666666667 40 108.33333333333333" fill="#DDA0DD" stroke="#333" stroke-width="2"/><path d="M 95 108.33333333333333 C 75 81.66666666666667 75 75 95 85 C 115 75 115 81.66666666666667 95 108.33333333333333" fill="#98D8C8" stroke="#333" stroke-width="2"/><path d="M 150 108.33333333333333 C 130 81.66666666666667 130 75 150 85 C 170 75 170 81.66666666666667 150 108.33333333333333" fill="#F7DC6F" stroke="#333" stroke-width="2"/><path d="M 205 108.33333333333333 C 185 81.66666666666667 185 75 205 85 C 225 75 225 81.66666666666667 205 108.33333333333333" fill="#FF6B6B" stroke="#333" stroke-width="2"/>
</svg>